# Blender v2.79 (sub 0) OBJ File: ''
# www.blender.org
mtllib refractor.mtl
o Circle
v 0.000000 -1.002717 -1.000000
v -0.866025 -1.002717 -0.500000
v -0.866025 -1.002717 0.500000
v 0.000000 -1.002717 1.000000
v 0.866025 -1.002717 0.500000
v 0.866025 -1.002717 -0.500000
v 0.000000 1.009069 -1.000000
v -0.866025 1.009069 -0.500000
v -0.866025 1.009069 0.500000
v 0.000000 1.009069 1.000000
v 0.866025 1.009069 0.500000
v 0.866025 1.009069 -0.500000
v 0.000000 2.084941 0.000000
v 0.000000 -2.002717 0.000000
vt 0.673759 0.692299
vt 0.467826 0.692299
vt 0.570793 0.513956
vt 0.166757 0.000135
vt 0.333378 0.000135
vt 0.333378 0.335342
vt 0.166757 0.335342
vt 0.833243 0.000135
vt 0.999865 0.000135
vt 0.999864 0.335342
vt 0.833243 0.335342
vt 0.500000 0.000135
vt 0.666621 0.000135
vt 0.666621 0.335342
vt 0.500000 0.335342
vt 0.000135 0.000135
vt 0.000135 0.335342
vt 0.182362 0.756448
vt 0.000135 0.651239
vt 0.182362 0.546031
vt 0.364589 0.440822
vt 0.364589 0.651239
vt 0.182362 0.335613
vt 0.000135 0.440822
vt 0.364860 0.513956
vt 0.467826 0.335613
vt 0.673759 0.335613
vt 0.776725 0.513956
vn 0.7559 -0.6547 0.0000
vn 1.0000 0.0000 0.0000
vn -0.5000 0.0000 0.8660
vn -0.5000 0.0000 -0.8660
vn 0.5000 0.0000 -0.8660
vn 0.5000 0.0000 0.8660
vn -1.0000 0.0000 0.0000
vn -0.3895 0.6270 0.6746
vn -0.3895 0.6270 -0.6746
vn 0.3895 0.6270 -0.6746
vn 0.3895 0.6270 0.6746
vn -0.7790 0.6270 0.0000
vn 0.7790 0.6270 0.0000
vn -0.3780 -0.6547 0.6547
vn -0.3780 -0.6547 -0.6547
vn 0.3780 -0.6547 -0.6547
vn 0.3780 -0.6547 0.6547
vn -0.7559 -0.6547 0.0000
usemtl None
s off
f 6/1/1 5/2/1 14/3/1
f 5/4/2 6/5/2 12/6/2 11/7/2
f 3/8/3 4/9/3 10/10/3 9/11/3
f 1/12/4 2/13/4 8/14/4 7/15/4
f 6/5/5 1/12/5 7/15/5 12/6/5
f 4/16/6 5/4/6 11/7/6 10/17/6
f 2/13/7 3/8/7 9/11/7 8/14/7
f 9/18/8 10/19/8 13/20/8
f 7/21/9 8/22/9 13/20/9
f 12/23/10 7/21/10 13/20/10
f 10/19/11 11/24/11 13/20/11
f 8/22/12 9/18/12 13/20/12
f 11/24/13 12/23/13 13/20/13
f 4/25/14 3/26/14 14/3/14
f 2/27/15 1/28/15 14/3/15
f 1/28/16 6/1/16 14/3/16
f 5/2/17 4/25/17 14/3/17
f 3/26/18 2/27/18 14/3/18
